<svg id="Capa_1" data-name="Capa 1" xmlns="http://www.w3.org/2000/svg" viewBox="0 0 460 512"><defs><style>.cls-1{fill:#fff;}</style></defs><path class="cls-1" d="M306,83a10,10,0,1,0,10,10A10,10,0,0,0,306,83Z" transform="translate(-26)"/><path class="cls-1" d="M206,83a10,10,0,1,0,10,10A10,10,0,0,0,206,83Z" transform="translate(-26)"/><path class="cls-1" d="M473.12,298.88A79.9,79.9,0,0,0,486,256a69.46,69.46,0,0,0-25.33-53.73A67.67,67.67,0,0,0,466,176c0-27.85-16.26-53.8-40.42-65.92a60,60,0,0,0-45.52-65.4C368.56,18.1,343,0,316,0c-25.11,0-47.63,14.65-60,36C243.63,14.65,221.11,0,196,0,169,0,143.44,18.1,132,44.68a59.91,59.91,0,0,0-45.52,65.4C62.26,122.2,46,148.15,46,176a67.67,67.67,0,0,0,5.33,26.27A69.46,69.46,0,0,0,26,256a79.94,79.94,0,0,0,12.88,42.88,69,69,0,0,0,8,89.64C40,430,73.13,472,116,472h.91A80.21,80.21,0,0,0,186,512c29.69,0,56.22-17.82,70-43.49C269.78,494.18,296.31,512,326,512a80.23,80.23,0,0,0,69.09-40H396c37.94,0,70-33.43,70-73a64.34,64.34,0,0,0-.9-10.48,69,69,0,0,0,8-89.64ZM246,151.38A39.8,39.8,0,0,0,226,146a10,10,0,0,0,0,20,20,20,0,0,1,20,20V376.17A79.81,79.81,0,0,0,186,349a10,10,0,0,0,0,20,60.07,60.07,0,0,1,60,60c0,34.15-27.48,63-60,63a60.18,60.18,0,0,1-54.3-34.88,10,10,0,0,0-10.2-5.73c-.71.08-1.41.18-2.11.27-28.46,3.9-60.51-28.33-51.84-64.38a10,10,0,0,0-3.32-10A49.76,49.76,0,0,1,46,339a49.13,49.13,0,0,1,7.34-25.73A67.45,67.45,0,0,0,96,329a10,10,0,0,0,0-20c-27.14,0-50-24.77-50-53a49.72,49.72,0,0,1,23.35-42.14,10,10,0,0,0,3.35-13.38A49.18,49.18,0,0,1,66,176c0-27,22-53,50-53,26.64,0,50,24.77,50,53a10,10,0,0,0,20,0c0-39.57-32.06-73-70-73a65.06,65.06,0,0,0-10,.78c0-.26,0-.52,0-.78a40,40,0,0,1,68.29-28.29,10,10,0,1,0,14.14-14.14,59.64,59.64,0,0,0-33.17-16.86C164.08,30.62,178.74,20,196,20c26.64,0,50,24.77,50,53ZM416,329a67.45,67.45,0,0,0,42.66-15.73A49.22,49.22,0,0,1,466,339a49.76,49.76,0,0,1-18.23,38.25,10,10,0,0,0-3.32,10A49.32,49.32,0,0,1,446,399c0,31-28.07,56.13-53.39,52.66-.7-.09-1.4-.19-2.11-.27a10,10,0,0,0-10.2,5.73A60.17,60.17,0,0,1,326,492c-32.52,0-60-28.85-60-63a60.07,60.07,0,0,1,60-60,10,10,0,0,0,0-20,79.81,79.81,0,0,0-60,27.17V186a20,20,0,0,1,20-20,10,10,0,0,0,0-20,39.8,39.8,0,0,0-20,5.38V73c0-28.23,23.36-53,50-53,17.26,0,31.92,10.62,40.74,23.71a59.64,59.64,0,0,0-33.17,16.86,10,10,0,1,0,14.14,14.15A40,40,0,0,1,406,103c0,.26,0,.52,0,.78a65.29,65.29,0,0,0-10-.78c-37.94,0-70,33.43-70,73a10,10,0,0,0,20,0c0-28.23,23.36-53,50-53,28,0,50,26,50,53a49.18,49.18,0,0,1-6.7,24.48,10,10,0,0,0,3.35,13.38A49.72,49.72,0,0,1,466,256c0,28.33-22.94,53-50,53a10,10,0,0,0,0,20Z" transform="translate(-26)"/><path class="cls-1" d="M223.45,214.05a10,10,0,0,0-14.12-.78C177.26,242,126,219,126,176a10,10,0,0,0-20,0,70.11,70.11,0,0,0,58.6,69.06A30.06,30.06,0,0,1,136,266a10,10,0,0,0,0,20,50.07,50.07,0,0,0,49.1-40.6,69.87,69.87,0,0,0,37.57-17.23A10,10,0,0,0,223.45,214.05Z" transform="translate(-26)"/><path class="cls-1" d="M116,389a10,10,0,0,0,0,20c26.64,0,50,24.77,50,53a10,10,0,0,0,20,0C186,422.43,153.94,389,116,389Z" transform="translate(-26)"/><path class="cls-1" d="M196,309a89.8,89.8,0,0,0-78.3,45.61,10,10,0,1,0,17.4,9.86A69.85,69.85,0,0,1,196,329a10,10,0,0,0,0-20Z" transform="translate(-26)"/><path class="cls-1" d="M376,266a30.06,30.06,0,0,1-28.6-20.94A70.11,70.11,0,0,0,406,176a10,10,0,0,0-20,0,50,50,0,0,1-83.33,37.27,10,10,0,1,0-13.34,14.9A69.87,69.87,0,0,0,326.9,245.4,50.07,50.07,0,0,0,376,286a10,10,0,0,0,0-20Z" transform="translate(-26)"/><path class="cls-1" d="M396,389c-37.94,0-70,33.43-70,73a10,10,0,0,0,20,0c0-28.23,23.36-53,50-53a10,10,0,0,0,0-20Z" transform="translate(-26)"/><path class="cls-1" d="M394.3,354.61A89.8,89.8,0,0,0,316,309a10,10,0,0,0,0,20,69.86,69.86,0,0,1,60.9,35.47,10,10,0,1,0,17.4-9.86Z" transform="translate(-26)"/></svg>